<svg width="1356" height="410" xmlns="http://www.w3.org/2000/svg" role="img" aria-label="CiderPunk Dark">
 <defs>
  <filter id="wm-glow" x="-30%" y="-80%" width="160%" height="260%">
   <feGaussianBlur stdDeviation="7"/>
  </filter>
  <linearGradient id="wm-g" x1="0" y1="0" x2="1" y2="0">
   <stop offset="0%" stop-color="#00E0FF"/>
   <stop offset="100%" stop-color="#FC388C"/>
  </linearGradient>
 </defs>
 <!-- NOTE: text uses a heavy system sans as a fallback. For final art, set your
       own display font or convert the text to outlines in your editor. -->
 <g>
  <title>Layer 1</title>
  <path id="svg_1" d="m-12,-22.00001c0,-15.21461 12.78539,-28 28,-28l1324,0c15.21461,0 28,12.78539 28,28l0,455c0,15.21461 -12.78539,28 -28,28l-1324,0c-15.21461,0 -28,-12.78539 -28,-28l0,-455z" opacity="undefined" stroke="null" fill="#000000"/>
  <g font-family="'Arial Black','Montserrat','Helvetica Neue',Arial,sans-serif" font-weight="900" text-anchor="middle" id="svg_2" stroke="null">
   <text x="682.00002" y="182.0662" font-size="118" letter-spacing="6" fill="#00E0FF" opacity="0.7" filter="url(#wm-glow)" id="svg_3" stroke="null" transform="matrix(1 0 0 0.967961 0 6.93287)">CIDERPUNK</text>
   <text x="682.00002" y="182.0662" font-size="118" letter-spacing="6" fill="#EAFEFF" id="svg_4" stroke="null" transform="matrix(1 0 0 0.967961 0 6.93287)">CIDERPUNK</text>
  </g>
  <path d="m360.00003,238c100,0 120,-22 200,0c90,24 130,-22 220,0c90,22 130,-20 260,0" fill="none" stroke="url(#wm-g)" stroke-width="6" stroke-linecap="round" filter="url(#wm-glow)" id="svg_5"/>
  <path d="m358.6667,226c100,0 120,-22 200,0c90,24 130,-22 220,0c90,22 130,-20 260,0" fill="none" stroke="#EAFEFF" stroke-width="2" stroke-linecap="round" id="svg_6"/>
  <text x="693.33337" y="303.33333" text-anchor="middle" font-family="'Arial','Helvetica Neue',sans-serif" font-weight="700" font-size="38" letter-spacing="18" fill="#FC388C" id="svg_7">DARK</text>
  <rect fill="#000000" opacity="NaN" x="-52.00003" y="-79.71429" width="954.66662" height="24" id="svg_8"/>
  <rect id="svg_9" height="418.00021" width="198.0001" y="-5.3571" x="1321.42956" fill="#000000"/>
  <rect id="svg_10" height="426.00021" width="116.00006" y="-5.3571" x="-226.5712" opacity="NaN" fill="#FC388C"/>
 </g>
</svg>